PathFileType	4	(X/Y/Z)	C:\Users\gl24\Desktop\Patient 3 Collaboration with Marleny\nms_results\Right\Marker Files\Patient3_NormalGait_1pt0_02_Right_01.trc.trc
DataRate	CameraRate	NumFrames	NumMarkers	Units	OrigDataRate	OrigDataStartFrame	OrigNumFrames
80.459770114943	80.459770114943	4	33	mm	80.459770114943	36	       141
Frame#	Time	L.Toe			L.Midfoot.Superior			Neck			R.Toe			R.Heel			L.Heel			R.Elbow			R.Shoulder			L.Shank.Inferior			L.Shoulder			L.Shank.Superior			R.Shank.Lateral			L.Patella			L.Thigh.Inferior			R.Wrist			R.Midfoot.Superior			L.Shank.Lateral			Sternum			L.Elbow			R.Midfoot.Lateral			L.Thigh.Superior			L.Wrist			R.Thigh.Superior			L.Thigh.Lateral			R.Shank.Inferior			L.Midfoot.Lateral			R.Shank.Superior			R.Thigh.Lateral			L.Asis			R.Thigh.Inferior			R.Patella			Sacral			R.Asis			
		X1	Y1	Z1	X2	Y2	Z2	X3	Y3	Z3	X4	Y4	Z4	X5	Y5	Z5	X6	Y6	Z6	X7	Y7	Z7	X8	Y8	Z8	X9	Y9	Z9	X10	Y10	Z10	X11	Y11	Z11	X12	Y12	Z12	X13	Y13	Z13	X14	Y14	Z14	X15	Y15	Z15	X16	Y16	Z16	X17	Y17	Z17	X18	Y18	Z18	X19	Y19	Z19	X20	Y20	Z20	X21	Y21	Z21	X22	Y22	Z22	X23	Y23	Z23	X24	Y24	Z24	X25	Y25	Z25	X26	Y26	Z26	X27	Y27	Z27	X28	Y28	Z28	X29	Y29	Z29	X30	Y30	Z30	X31	Y31	Z31	X32	Y32	Z32	X33	Y33	Z33	

36	0.825000000000	275.040207749500	25.238453456797	401.209382788879	243.084630607345	121.881598581738	407.472075305383	470.882634391395	1442.087452108932	493.661302074855	900.107188546277	45.491034288564	555.197066204890	602.619826168518	37.965605195751	533.198308896060	108.031412191727	236.635284193121	446.865462410749	455.619733075278	1054.239312777056	754.730091753301	508.998536254938	1399.903970675054	660.531598547277	337.442736648042	265.531078302701	398.344614901492	547.617734328177	1413.251974706950	350.272217249322	463.261939782455	361.171858908269	381.345914278694	667.019903969600	342.003653832688	654.820261710274	581.328164660041	424.175973181631	394.419759200050	621.878359689571	567.304887418679	376.872805793932	535.914702126609	815.426359702449	794.500412500739	775.953197351737	91.934702284816	551.217805254557	356.932143949139	386.165274324055	340.006258803566	624.645817188242	1351.617218312691	511.131678333016	543.717224906330	1078.168177417103	223.238427898559	687.242282128722	30.102938069880	595.584798489550	639.985895098590	698.295510405465	368.205341425970	730.360273480864	896.787087444988	214.749134895668	711.948723176859	731.046581358821	623.784143902743	537.316622813803	627.267739257686	330.956613677685	728.569003945301	218.917824095839	573.620063693551	139.104198070119	165.344164913791	382.826405239677	741.437860567136	393.804942762083	599.078362281190	643.660586989708	656.635738800218	674.250397862737	618.716756577276	933.720910290369	367.543051212892	735.836793131296	623.408269552953	602.897210447359	758.767218791050	512.141413935062	588.385859617087	441.025008186206	966.514019488097	493.771113041990	612.660283072713	961.854407231828	626.489610569337	
37	0.837428571429	270.471717104732	23.930354113999	400.720758554340	247.560239374107	128.682199103998	407.571122617978	470.927345725251	1443.658988897196	495.423791612836	887.719851691329	44.993117070975	555.146352679227	590.229693240672	37.966306379703	533.360928200454	119.838052427155	253.064514212565	446.313174659371	460.698727385493	1055.370225253662	757.017393306538	510.364190148731	1401.610175093365	662.065997164997	348.683716652168	270.056254989504	399.068589609651	546.981318904571	1415.026665579071	351.582140191624	477.688106868758	361.699089642293	382.692178027765	659.796457906057	342.442283357253	655.060673922110	597.500241131104	424.467175001949	396.326922923621	633.660894541884	569.299227348410	378.616547355703	546.399248969207	818.260704015480	796.105809441660	763.654435223836	91.834336828390	551.072579194204	372.093371555630	389.928295667701	340.565389139207	625.093481520217	1353.499574794271	511.918154388713	540.772530510245	1079.420340140239	227.321326818945	674.808741866841	30.409315035892	595.755223359322	646.851940029603	700.770543754057	369.988998441369	720.001197315554	890.872965721598	216.624313971214	712.210066971496	731.047805284486	625.028945027837	546.706761433493	626.502425818489	332.482383106822	718.927056063320	218.300802772047	573.750478322830	146.140622126076	179.489405955060	382.272865720450	735.322179920374	392.703601102845	599.535582926354	642.789198777386	657.481905205550	675.321800578605	618.334175879697	935.121902345405	368.744530611288	734.140884937197	622.913835168465	603.817130917291	755.193412529684	510.859816738187	588.737288742721	441.729904556257	968.219918344190	495.703863453239	614.703762565596	964.155507544166	627.570501865460	
38	0.849857142857	269.487430423282	23.707022801834	400.187828278690	254.523573040359	135.785228251320	407.615540201431	470.902896216923	1445.399467988458	497.165331137373	875.238811695373	44.692896044530	555.103738287064	577.761401852813	37.952272369278	533.472561400788	132.972975893570	267.705807691935	445.748542279643	465.782493594444	1056.752830941818	759.365848611117	511.869622538302	1403.485472128642	663.522128822225	361.137747099624	274.741922310484	399.811288209307	546.066454737928	1416.864191666037	352.810962050048	492.789196872346	362.896156275400	384.095206005540	651.629859544231	342.771759372066	655.175893963790	613.859639947545	425.851655090237	398.371849121610	645.340067122914	572.105602744195	380.494325452251	557.221220259190	821.568147775614	797.609283791194	751.202160139370	91.780478373079	550.950962793772	387.884226784439	393.953106774269	341.244836975698	625.410211704495	1355.407552418162	512.485435926143	537.695744462725	1080.860919676352	231.092419689066	662.305812268910	30.637923733932	595.862830097153	653.600155927058	703.844555450462	371.675778180557	709.170098533043	885.396721570963	218.588523489673	711.806165894282	730.755754470012	626.121420279162	556.037270263386	626.437307266098	333.926000814952	708.771941300445	217.701910478012	573.943363015492	155.404274859858	192.417522596872	381.714402190767	728.294423794740	391.616511109318	600.073479863362	641.038527166824	658.158507279781	676.203083511987	617.523270851636	936.787241916052	369.664921700299	731.570939539460	622.068105555307	604.638151062759	750.586806997123	509.429295553465	589.105471077521	442.071836987378	970.094456491080	497.763203107561	616.518705748580	966.382618990625	628.416790148729	
39	0.862285714286	272.784025925153	24.784708758023	399.688452917856	264.008709890595	142.910878961485	407.649991270499	470.792469575951	1447.270234624973	498.896663635135	862.726129436417	44.424990156330	555.079279474821	565.246999255163	37.953905390716	533.536660011253	146.887653425419	279.969614582713	445.220199974107	470.857252402177	1058.343005297961	761.767142939806	513.489368016755	1405.489453309469	664.896414261119	374.562218281662	279.479712351094	400.540285408678	544.832623948548	1418.736582649414	353.954369646525	508.290090194344	364.771691340601	385.483858429367	642.689155540196	343.005796478172	655.238692316855	630.146474364637	428.313945708854	400.407041662524	656.742149024837	575.704299452754	382.399802914351	568.309880324180	825.311871630362	799.001715810407	738.687021231480	91.710481728349	550.866148230829	403.943979113315	398.210450494233	342.065232073152	625.580424462639	1357.332640695511	512.825273311813	534.415224303947	1082.437152691822	234.507610169951	649.762309902388	30.780699419361	595.917275392922	660.144551262664	707.499449424341	373.243777700779	697.961159031966	880.444504328247	220.613748227165	710.717290440396	730.251238820940	627.039539869384	565.153958928006	627.128939723283	335.272862994055	698.215081451132	217.121796898662	574.199311419737	166.652330112044	203.566455083647	381.194895414495	720.479539665295	390.572179902604	600.695489267580	638.462531002367	658.709402902101	676.912958084471	616.404663000785	938.686447817123	370.323335714833	728.195972205591	620.971992694294	605.394099801126	745.029814441133	507.900862684599	589.549587923584	442.110284520288	972.077874368190	499.924497160782	618.082570765899	968.506221987949	629.033505161671	
